<svg xmlns="http://www.w3.org/2000/svg" width="2399.960" height="516.020" viewBox="0 0 2399.960 516.020" fill="none">
  <path d="M 1044.9 139.58 L 1058.82 132.94 L 1056.94 129.32 C 1024.42 65.78 959.92 26.32 888.62 26.32 C 784.46 26.32 699.72 110.8 699.72 214.62 C 699.72 318.44 784.46 402.92 888.62 402.92 C 959.92 402.92 1024.42 363.44 1056.94 299.92 L 1058.82 296.28 L 1044.9 289.64 L 1043.14 293.08 C 1013.24 351.34 954.02 387.54 888.6 387.54 C 792.94 387.54 715.1 309.96 715.1 214.58 C 715.1 119.2 792.94 41.62 888.6 41.62 C 954.02 41.62 1013.24 77.82 1043.14 136.08 L 1044.9 139.54 L 1044.9 139.58 Z M 709.42 52.64 L 705.44 52.64 C 615.82 52.64 542.92 125.32 542.92 214.64 C 542.92 295.5 476.92 361.28 395.8 361.28 L 391.82 361.28 L 391.82 376.64 L 395.8 376.64 C 485.42 376.64 558.32 303.96 558.32 214.64 C 558.32 133.78 624.32 68 705.44 68 L 709.42 68 L 709.42 52.64 Z M 569.3 214.62 C 569.3 309.98 491.46 387.58 395.8 387.58 L 391.82 387.58 L 391.82 402.94 L 395.8 402.94 C 499.96 402.94 584.7 318.46 584.7 214.64 C 584.7 148.28 638.86 94.28 705.46 94.28 L 709.44 94.28 L 709.44 78.92 L 705.46 78.92 C 630.4 78.92 569.32 139.8 569.32 214.64 L 569.3 214.62 Z M 1292.72 106.22 C 1232.2 106.22 1182.96 155.3 1182.96 215.62 C 1182.96 275.94 1232.2 325.02 1292.72 325.02 C 1353.24 325.02 1402.46 275.94 1402.46 215.62 C 1402.46 155.3 1353.24 106.22 1292.72 106.22 Z M 1292.72 309.68 C 1240.7 309.68 1198.36 267.5 1198.36 215.64 C 1198.36 163.78 1240.68 121.6 1292.72 121.6 C 1344.76 121.6 1387.06 163.78 1387.06 215.64 C 1387.06 267.5 1344.74 309.68 1292.72 309.68 Z M 1066.9 304.44 C 1032.54 371.92 964.22 413.86 888.58 413.86 C 778.36 413.86 688.7 324.48 688.7 214.62 C 688.7 104.76 778.38 15.38 888.58 15.38 C 964.22 15.38 1032.54 57.3 1066.9 124.78 L 1068.66 128.24 L 1082.56 121.62 L 1080.72 118 C 1043.74 45.22 970.14 0.02 888.6 0.02 C 813.02 0.02 742.2 40.3 703.46 105.22 C 643.94 106.28 595.7 155.12 595.7 214.6 C 595.7 324.46 506.02 413.84 395.8 413.84 L 391.82 413.84 L 391.82 429.2 L 395.8 429.2 C 514.52 429.2 611.1 332.94 611.1 214.6 C 611.1 165.98 646.86 126.4 694.86 121.16 C 680.78 150.12 673.34 182.34 673.34 214.6 C 673.34 332.94 769.92 429.22 888.62 429.22 L 893.4 429.22 L 893.34 429.14 C 972.98 427.42 1044.46 382.58 1080.72 311.22 L 1082.56 307.6 L 1068.66 300.98 L 1066.9 304.44 Z M 391.82 350.34 L 395.8 350.34 C 470.86 350.34 531.94 289.46 531.94 214.62 C 531.94 119.26 609.78 41.68 705.44 41.68 L 709.42 41.68 L 709.42 26.32 L 705.44 26.32 C 601.28 26.32 516.54 110.8 516.54 214.62 C 516.54 280.98 462.38 334.96 395.78 334.96 L 394.1 334.96 C 396.56 331.34 398.92 327.64 401.16 323.84 C 428.9 322.5 454.88 310.8 474.36 290.86 C 494.46 270.32 505.52 243.24 505.52 214.6 C 505.52 104.74 595.2 15.36 705.42 15.36 L 709.4 15.36 L 709.4 0.02 L 705.42 0.02 C 586.7 0.02 490.12 96.28 490.12 214.62 C 490.12 261.36 455.88 300.7 409.88 307.58 C 418.08 290.56 423.96 272.56 427.4 254.06 L 428.28 249.36 L 412.64 249.36 L 412 252.58 C 393.92 346.26 311.28 414.26 215.5 414.26 C 105.16 414.26 15.38 324.8 15.38 214.82 C 15.38 104.84 105.18 15.38 215.54 15.38 C 245.54 15.38 275.52 22.24 302.5 35.26 L 308 38.16 L 299.88 46.24 C 273.72 33.28 245.52 26.7 216.08 26.7 C 165.6 26.7 118.18 46.32 82.54 81.92 C 46.86 117.48 27.22 164.76 27.22 215.06 C 27.22 265.36 46.86 312.66 82.54 348.2 C 118.2 383.78 165.64 403.36 216.1 403.36 C 266.56 403.36 313.98 383.78 349.66 348.2 C 375.66 322.32 393.36 289.8 400.9 254.18 L 401.9 249.38 L 386.18 249.38 L 385.5 252.5 C 378.42 284.6 362.28 313.94 338.8 337.34 C 306.04 370.02 262.46 388 216.12 388 C 169.78 388 126.22 370 93.44 337.34 C 60.72 304.72 42.72 261.3 42.72 215.04 C 42.72 168.78 60.74 125.36 93.44 92.74 C 126.22 60.06 169.8 42.08 216.12 42.08 C 241.34 42.08 265.62 47.36 288.34 57.78 L 279.82 66.26 C 259.52 57.64 237.98 53.26 215.76 53.26 C 172.44 53.26 131.76 70.02 101.22 100.46 C 70.58 131 53.7 171.68 53.68 215.02 C 53.68 258.34 70.56 299.04 101.22 329.58 C 131.86 360.12 172.66 376.96 216.12 376.96 C 259.58 376.96 300.4 360.14 331.04 329.58 C 351.72 308.98 366.42 282.94 373.56 254.3 L 374.8 249.36 L 359 249.36 L 358.2 252.34 C 351.62 277.52 338.46 300.46 320.16 318.7 C 292.42 346.36 255.46 361.58 216.12 361.58 C 176.78 361.58 139.82 346.36 112.08 318.7 C 84.34 291.06 69.06 254.24 69.06 215.04 C 69.06 175.82 84.34 138.98 112.08 111.32 C 139.8 83.66 176.74 68.44 216.1 68.44 C 233.66 68.44 251.08 71.68 267.96 78.06 L 259.48 86.52 C 245.22 81.72 230.64 79.28 216.1 79.28 C 179.74 79.28 145.56 93.4 119.84 119.02 C 94.18 144.6 80.04 178.68 80.04 214.96 C 80.04 251.26 94.18 285.34 119.84 310.94 C 145.56 336.58 179.74 350.68 216.1 350.68 C 252.46 350.68 286.66 336.56 312.36 310.94 C 328.1 295.28 339.82 275.74 346.3 254.46 L 347.86 249.34 L 331.74 249.34 L 330.86 252.08 C 324.94 270.38 315.08 286.54 301.52 300.08 C 278.74 322.82 248.4 335.34 216.14 335.34 C 183.88 335.34 153.56 322.82 130.76 300.08 C 107.98 277.38 95.44 247.16 95.44 214.98 C 95.44 182.8 107.98 152.58 130.76 129.88 C 153.56 107.14 183.88 94.62 216.14 94.62 C 226.42 94.62 236.86 96.02 247.18 98.8 L 237.94 108 C 230.72 106.54 223.3 105.8 215.86 105.8 C 186.56 105.8 159.1 117.08 138.54 137.58 C 117.84 158.22 106.44 185.68 106.44 214.94 C 106.44 244.2 117.84 271.68 138.54 292.3 C 159.22 312.94 186.78 324.3 216.14 324.3 C 245.5 324.3 273.06 312.94 293.74 292.3 C 304.5 281.58 312.76 268.92 318.32 254.68 L 320.44 249.26 L 303.96 249.26 L 302.92 251.68 C 298.18 262.88 291.44 272.88 282.88 281.42 C 265.14 299.1 241.46 308.86 216.22 308.86 C 213.42 308.86 210.6 308.74 207.8 308.5 L 404.94 111.98 L 403.42 109.36 C 402.28 107.34 400.92 104.98 399.48 102.62 L 396.84 98.34 L 189.48 305.06 C 185.54 303.92 181.72 302.54 178.06 300.94 L 390.5 89.16 L 388.42 86.42 C 386.94 84.44 385.4 82.54 383.7 80.44 L 380.92 77 L 164 293.26 C 160.94 291.24 157.98 289 155.14 286.6 L 373.62 68.82 L 370.9 66 C 369.14 64.18 367.38 62.42 365.54 60.66 L 362.72 57.98 L 144.26 275.74 C 141.84 272.9 139.6 269.94 137.58 266.92 L 354.46 50.72 L 351 47.94 C 349.02 46.34 347.02 44.76 345 43.24 L 342.24 41.18 L 129.78 252.96 C 128.18 249.32 126.8 245.5 125.66 241.58 L 333.02 34.88 C 333.02 34.88 330.82 33.52 330.74 33.48 L 326.18 30.48 C 292.82 10.56 254.56 0.02 215.52 0.02 C 96.68 0.02 0 96.38 0 214.82 C 0 333.26 96.68 429.62 215.52 429.62 C 285.7 429.62 351.7 395.04 391.82 338.3 L 391.82 350.36 L 391.82 350.34 Z M 122.18 223.32 C 119.76 195.72 129.76 168.02 149.34 148.5 C 167.12 130.78 190.82 121 216.06 121 L 217.86 121 C 220.02 121.04 222.2 121.18 224.44 121.4 L 122.2 223.32 L 122.18 223.32 Z M 888.6 120.58 C 923.38 120.58 955.26 139.62 971.78 170.28 L 973.58 173.62 L 987.44 167 L 985.48 163.34 C 966.3 127.48 929.18 105.22 888.6 105.22 C 828.08 105.22 778.86 154.3 778.86 214.62 C 778.86 274.94 827.02 322.94 886.62 324 L 886.62 324.06 L 888.62 324.06 C 929.2 324.06 966.34 301.78 985.5 265.94 L 987.46 262.28 L 973.6 255.66 L 971.8 259 C 955.26 289.66 923.4 308.7 888.62 308.7 C 836.6 308.7 794.26 266.5 794.26 214.66 C 794.26 162.82 836.58 120.62 888.62 120.62 L 888.6 120.58 Z M 1021.06 151 L 1034.92 144.38 L 1033.04 140.72 C 1004.94 86.38 949.6 52.64 888.6 52.64 C 798.98 52.64 726.08 125.32 726.08 214.64 C 726.08 303.96 797.92 375.56 886.6 376.62 L 886.6 376.68 L 888.6 376.68 C 949.6 376.68 1004.96 342.92 1033.04 288.58 L 1034.9 284.94 L 1021.04 278.32 L 1019.24 281.74 C 993.78 330.82 943.7 361.32 888.56 361.32 C 807.44 361.32 741.44 295.54 741.44 214.68 C 741.44 133.82 807.44 68.04 888.56 68.04 C 943.68 68.04 993.76 98.54 1019.24 147.62 L 1021.02 151.02 L 1021.06 151 Z M 997.32 162.3 L 1011.18 155.68 L 1009.26 152.02 C 985.62 106.92 939.38 78.9 888.6 78.9 C 813.54 78.9 752.48 139.78 752.48 214.62 C 752.48 289.46 812.46 349.26 886.6 350.32 L 886.6 350.36 L 888.6 350.36 C 939.38 350.36 985.62 322.34 1009.26 277.24 L 1011.18 273.58 L 997.32 266.96 L 995.52 270.34 C 974.52 310.22 933.54 334.98 888.6 334.98 C 822.02 334.98 767.88 280.98 767.88 214.62 C 767.88 148.26 822.04 94.28 888.6 94.28 C 933.56 94.28 974.52 119.06 995.52 158.94 L 997.32 162.3 Z M 1292.72 79.92 C 1217.66 79.92 1156.6 140.8 1156.6 215.64 C 1156.6 290.48 1217.66 351.36 1292.72 351.36 C 1367.78 351.36 1428.86 290.48 1428.86 215.64 C 1428.86 140.8 1367.78 79.92 1292.72 79.92 Z M 1292.72 335.98 C 1226.14 335.98 1171.98 281.98 1171.98 215.62 C 1171.98 149.26 1226.14 95.28 1292.72 95.28 C 1359.3 95.28 1413.46 149.26 1413.46 215.62 C 1413.46 281.98 1359.3 335.98 1292.72 335.98 Z M 1586.22 516 L 1601.62 516 L 1601.62 4.1 L 1586.22 4.1 L 1586.22 516 Z M 1559.84 516 L 1575.22 516 L 1575.22 4.1 L 1559.84 4.1 L 1559.84 516 Z M 2384.36 249.44 L 2383.72 252.66 C 2365.62 346.34 2283 414.34 2187.22 414.34 C 2076.88 414.34 1987.1 324.88 1987.1 214.9 C 1987.1 104.92 2076.88 15.46 2187.22 15.46 C 2217.28 15.46 2247.34 22.36 2274.38 35.44 L 2279.68 38.24 L 2271.56 46.34 C 2245.4 33.38 2217.2 26.8 2187.76 26.8 C 2137.3 26.8 2089.88 46.38 2054.2 81.94 C 2018.52 117.5 1998.86 164.78 1998.86 215.08 C 1998.86 265.38 2018.5 312.68 2054.2 348.22 C 2089.86 383.78 2137.3 403.38 2187.76 403.38 C 2238.22 403.38 2285.64 383.8 2321.32 348.22 C 2347.32 322.32 2365.04 289.82 2372.54 254.2 L 2373.54 249.4 L 2357.82 249.4 L 2357.16 252.52 C 2350.08 284.62 2333.92 313.96 2310.44 337.36 C 2277.68 370.04 2234.1 388.02 2187.76 388.02 C 2141.42 388.02 2097.86 370.02 2065.08 337.36 C 2032.38 304.76 2014.36 261.32 2014.36 215.06 C 2014.36 168.8 2032.38 125.38 2065.08 92.76 C 2097.88 60.08 2141.44 42.1 2187.76 42.1 C 2212.96 42.1 2237.26 47.38 2260 57.8 L 2251.48 66.3 C 2231.16 57.68 2209.62 53.3 2187.4 53.3 C 2144.08 53.3 2103.4 70.06 2072.86 100.5 C 2042.2 131.04 2025.32 171.74 2025.32 215.06 C 2025.32 258.38 2042.2 299.06 2072.86 329.62 C 2103.48 360.16 2144.3 377 2187.76 377 C 2231.22 377 2272.06 360.18 2302.68 329.62 C 2323.36 309.02 2338.06 282.98 2345.2 254.36 L 2346.46 249.42 L 2330.64 249.42 L 2329.86 252.38 C 2323.24 277.58 2310.08 300.52 2291.8 318.76 C 2264.06 346.42 2227.1 361.64 2187.76 361.64 C 2148.42 361.64 2111.46 346.42 2083.72 318.76 C 2055.98 291.12 2040.7 254.3 2040.7 215.08 C 2040.7 175.86 2055.98 139.04 2083.72 111.36 C 2111.46 83.7 2148.4 68.48 2187.76 68.48 C 2205.32 68.48 2222.76 71.72 2239.64 78.1 L 2231.16 86.56 C 2216.9 81.76 2202.32 79.32 2187.78 79.32 C 2151.42 79.32 2117.24 93.44 2091.52 119.06 C 2065.86 144.64 2051.72 178.72 2051.72 215 C 2051.72 251.3 2065.86 285.38 2091.52 310.98 C 2117.24 336.62 2151.42 350.72 2187.78 350.72 C 2224.14 350.72 2258.34 336.6 2284.04 310.98 C 2299.76 295.32 2311.5 275.8 2317.98 254.5 L 2319.52 249.38 L 2303.4 249.38 L 2302.52 252.12 C 2296.58 270.48 2286.7 286.62 2273.16 300.12 C 2250.38 322.86 2220.04 335.38 2187.78 335.38 C 2155.52 335.38 2125.2 322.86 2102.4 300.12 C 2079.64 277.42 2067.1 247.2 2067.1 215.02 C 2067.1 182.84 2079.64 152.62 2102.4 129.92 C 2125.2 107.18 2155.52 94.66 2187.78 94.66 C 2198.08 94.66 2208.5 96.06 2218.82 98.84 L 2209.58 108.04 C 2202.36 106.58 2194.94 105.84 2187.5 105.84 C 2158.18 105.84 2130.72 117.12 2110.18 137.62 C 2089.46 158.24 2078.06 185.7 2078.06 214.98 C 2078.06 244.26 2089.46 271.72 2110.18 292.34 C 2130.86 312.98 2158.42 324.34 2187.76 324.34 C 2217.1 324.34 2244.68 312.98 2265.36 292.34 C 2276.12 281.62 2284.4 268.96 2289.94 254.72 L 2292.06 249.3 L 2275.58 249.3 L 2274.56 251.72 C 2269.8 262.92 2263.06 272.94 2254.52 281.46 C 2236.78 299.14 2213.1 308.9 2187.86 308.9 C 2185.06 308.9 2182.24 308.78 2179.44 308.54 L 2376.6 112.02 L 2375.1 109.4 C 2374.06 107.56 2372.66 105.12 2371.14 102.66 L 2368.5 98.38 L 2161.12 305.08 C 2157.18 303.94 2153.36 302.56 2149.7 300.96 L 2362.16 89.18 L 2360.06 86.44 C 2358.78 84.72 2357.44 83.06 2356.1 81.38 L 2352.56 77.02 L 2135.64 293.26 C 2132.58 291.22 2129.6 289 2126.78 286.6 L 2345.26 68.82 L 2342.54 66 C 2340.78 64.18 2339 62.4 2337.18 60.66 L 2334.36 57.98 L 2115.88 275.76 C 2113.44 272.9 2111.18 269.94 2109.18 266.94 L 2326.1 50.7 L 2322.64 47.92 C 2320.66 46.32 2318.66 44.74 2316.64 43.22 L 2313.88 41.16 L 2101.42 252.94 C 2099.82 249.28 2098.44 245.48 2097.3 241.56 L 2304.66 34.86 L 2297.8 30.46 C 2264.44 10.54 2226.18 0 2187.14 0 C 2068.3 0 1971.6 96.36 1971.6 214.82 C 1971.6 333.28 2067.72 429.06 2186.1 429.6 L 2186.14 429.66 L 2187.16 429.66 C 2291.12 429.66 2380.24 355.82 2399.08 254.1 L 2399.96 249.4 L 2384.32 249.4 L 2384.36 249.44 Z M 2093.84 223.34 C 2091.42 195.74 2101.42 168.04 2121 148.52 C 2138.78 130.8 2162.48 121.02 2187.72 121.02 L 2189.54 121.02 C 2191.7 121.06 2193.88 121.2 2196.1 121.42 L 2093.86 223.34 L 2093.84 223.34 Z M 1748.74 0.42 C 1716.2 0.42 1683.64 7.94 1654.38 22.2 L 1654.38 4.1 L 1639 4.1 L 1639 516.02 L 1654.38 516.02 L 1654.38 407.84 C 1683.62 422.1 1716.16 429.62 1748.74 429.62 C 1867.44 429.62 1964.02 333.36 1964.02 215.02 C 1964.02 96.68 1867.44 0.42 1748.74 0.42 Z M 1654.38 270.76 C 1674.04 304.06 1709.5 324.42 1748.74 324.42 C 1809.26 324.42 1858.5 275.34 1858.5 215.02 C 1858.5 154.7 1809.26 105.62 1748.74 105.62 C 1709.5 105.62 1674.04 126 1654.38 159.3 L 1654.38 140.22 C 1677.5 111.28 1711.86 94.68 1748.74 94.68 C 1815.32 94.68 1869.48 148.68 1869.48 215.04 C 1869.48 281.4 1815.32 335.38 1748.74 335.38 C 1711.86 335.38 1677.52 318.8 1654.38 289.84 L 1654.38 270.78 L 1654.38 270.76 Z M 1654.38 215.02 C 1654.38 163.18 1696.7 121 1748.74 121 L 1750.72 121 C 1801.84 122.06 1843.08 163.84 1843.08 215.02 C 1843.08 266.2 1800.76 309.06 1748.72 309.06 C 1696.68 309.06 1654.36 266.88 1654.36 215.02 L 1654.38 215.02 Z M 1654.38 312.54 C 1679.68 336.86 1713.8 350.72 1748.74 350.72 C 1823.8 350.72 1884.86 289.84 1884.86 215.02 C 1884.86 140.2 1823.8 79.3 1748.74 79.3 C 1713.8 79.3 1679.68 93.16 1654.38 117.48 L 1654.38 102.74 C 1680.88 80.56 1714.34 68.36 1748.74 68.36 C 1829.86 68.36 1895.84 134.14 1895.84 215 C 1895.84 295.86 1829.84 361.64 1748.74 361.64 C 1714.38 361.64 1680.9 349.44 1654.38 327.26 L 1654.38 312.5 L 1654.38 312.54 Z M 1654.38 346.68 C 1682.08 366.52 1714.62 376.98 1748.74 376.98 C 1838.36 376.98 1911.26 304.3 1911.26 214.98 C 1911.26 125.66 1838.36 52.98 1748.74 52.98 C 1714.62 52.98 1682.08 63.44 1654.38 83.28 L 1654.38 69.92 C 1682.52 51.68 1715.12 42.02 1748.74 42.02 C 1844.4 42.02 1922.24 119.6 1922.24 214.98 C 1922.24 310.36 1844.4 387.94 1748.74 387.94 C 1715.14 387.94 1682.54 378.3 1654.38 360.04 L 1654.38 346.64 L 1654.38 346.68 Z M 1748.74 414.24 C 1715.9 414.24 1683.3 406.06 1654.4 390.6 L 1654.4 378.06 C 1683.06 394.6 1715.6 403.32 1748.76 403.32 C 1852.92 403.32 1937.66 318.84 1937.66 215.02 C 1937.66 111.2 1852.92 26.72 1748.76 26.72 C 1715.64 26.72 1683.08 35.44 1654.4 52 L 1654.4 39.44 C 1683.3 23.96 1715.9 15.78 1748.76 15.78 C 1858.96 15.78 1948.62 105.16 1948.62 215.02 C 1948.62 324.88 1858.96 414.26 1748.74 414.26 L 1748.74 414.24 Z M 1612.6 516 L 1627.98 516 L 1627.98 4.1 L 1612.6 4.1 L 1612.6 516 Z M 1292.72 27.32 C 1188.56 27.32 1103.82 111.8 1103.82 215.62 C 1103.82 319.44 1188.56 403.92 1292.72 403.92 C 1396.88 403.92 1481.64 319.44 1481.64 215.62 C 1481.64 111.8 1396.9 27.32 1292.72 27.32 Z M 1292.72 388.6 C 1197.06 388.6 1119.22 311.02 1119.22 215.64 C 1119.22 120.26 1197.06 42.68 1292.72 42.68 C 1388.38 42.68 1466.22 120.26 1466.22 215.64 C 1466.22 311.02 1388.38 388.6 1292.72 388.6 Z M 1292.72 53.62 C 1203.12 53.62 1130.22 126.3 1130.22 215.62 C 1130.22 304.94 1203.12 377.62 1292.72 377.62 C 1382.32 377.62 1455.24 304.94 1455.24 215.62 C 1455.24 126.3 1382.34 53.62 1292.72 53.62 Z M 1292.72 362.26 C 1211.6 362.26 1145.62 296.48 1145.62 215.62 C 1145.62 134.76 1211.62 68.98 1292.72 68.98 C 1373.82 68.98 1439.84 134.76 1439.84 215.62 C 1439.84 296.48 1373.84 362.26 1292.72 362.26 Z M 1533.48 516 L 1548.86 516 L 1548.86 4.1 L 1533.48 4.1 L 1533.48 516 Z M 1492.6 136.02 C 1489.4 128.06 1485.72 120.28 1481.62 112.82 L 1481.62 4.1 L 1466.24 4.1 L 1466.24 88.8 C 1462.8 84.14 1459.12 79.54 1455.26 75.1 L 1455.26 4.1 L 1439.86 4.1 L 1439.86 59.14 C 1436.36 55.86 1432.68 52.64 1428.88 49.54 L 1428.88 4.1 L 1413.5 4.1 L 1413.5 38.08 C 1409.92 35.66 1406.24 33.34 1402.5 31.12 L 1402.5 4.1 L 1387.1 4.1 L 1387.1 22.78 C 1357.86 8.52 1325.32 1 1292.76 1 C 1174.06 1 1077.48 97.28 1077.48 215.62 C 1077.48 333.96 1174.06 430.24 1292.76 430.24 L 1294.76 430.2 C 1326.66 429.9 1358.46 422.38 1387.12 408.42 L 1387.12 426.52 L 1402.52 426.52 L 1402.52 400.12 C 1406.28 397.9 1409.98 395.56 1413.52 393.16 L 1413.52 426.52 L 1428.9 426.52 L 1428.9 381.68 C 1432.64 378.62 1436.32 375.4 1439.88 372.08 L 1439.88 426.5 L 1455.28 426.5 L 1455.28 356.12 C 1459.08 351.74 1462.76 347.16 1466.26 342.42 L 1466.26 426.52 L 1481.64 426.52 L 1481.64 318.42 C 1485.74 310.94 1489.42 303.18 1492.62 295.22 L 1492.62 426.54 L 1508 426.54 L 1508 4.1 L 1492.62 4.1 L 1492.62 136.02 L 1492.6 136.02 Z M 1292.72 414.86 C 1182.5 414.86 1092.84 325.48 1092.84 215.62 C 1092.84 105.76 1182.5 16.38 1292.72 16.38 C 1402.94 16.38 1492.62 105.76 1492.62 215.62 C 1492.62 325.48 1402.94 414.86 1292.72 414.86 Z" fill="currentColor" fill-rule="nonzero"/>
</svg>
